<svg width="175" height="142" viewBox="0 0 175 142" fill="none" xmlns="http://www.w3.org/2000/svg" class="jss17"><g clip-path="url(#clip0)"><path d="M14.6783 127.308V130.981L11.0088 134.653L14.6783 138.326V141.999H11.0088V140.162L7.33917 136.49L3.66959 140.162V141.999H0V138.326L3.66959 134.653L0 130.981V127.308H3.66959V129.144L7.33917 132.886L11.0088 129.144V127.308H14.6783Z" fill="#5A22F5"></path><path d="M32.1035 127.308V130.981H26.5991V141.999H22.9295V130.981H17.4252V127.308H32.1035Z" fill="#5A22F5"></path><path d="M34.8503 127.308H49.5287V141.999H34.8503V127.308ZM45.8591 138.326V130.981H38.5199V138.326H45.8591Z" fill="#5A22F5"></path><path d="M66.9538 127.308V130.981L63.2842 134.653L66.9538 138.326V141.999H63.2842V140.162L59.6146 136.49H55.9451V141.999H52.2755V127.308H55.9451V132.817H59.6146L63.2842 129.282V127.308H66.9538Z" fill="#5A22F5"></path><path d="M69.7006 141.999V127.308H84.379V130.981H73.3702V132.817H84.379V136.49H73.3702V138.326H84.379V141.999H69.7006Z" fill="#5A22F5"></path><path d="M87.1258 127.308H101.804V141.999H98.1346V130.981H90.7954V141.999H87.1258V127.308Z" fill="#5A22F5"></path><path d="M122.68 130.981H111.662V138.326H122.68V141.999H107.99V127.308H122.68V130.981Z" fill="#CC01F0"></path><path d="M125.43 127.308H140.12V141.999H136.448V137.362H129.102V141.999H125.43V127.308ZM136.448 133.689V130.981H129.102V133.689H136.448Z" fill="#CC01F0"></path><path d="M157.56 130.981H146.542V132.817H153.887V136.49H146.542V141.999H142.869V127.308H157.56V130.981Z" fill="#CC01F0"></path><path d="M160.309 141.999V127.308H175V130.981H163.982V132.817H175V136.49H163.982V138.326H175V141.999H160.309Z" fill="#CC01F0"></path></g><path fill-rule="evenodd" clip-rule="evenodd" d="M110.495 93.0159L89.3772 107.928H89.2328C89.2328 108.074 89.088 108.074 89.088 108.074H88.9436C88.8207 108.114 88.7096 108.155 88.6072 108.192C88.3525 108.286 88.1501 108.36 87.9478 108.36C87.5193 108.36 87.2357 108.22 86.952 108.074H86.8072L86.6624 107.928H86.5236L65.4449 93.0048L44.3726 107.94H44.2278C44.2278 108.086 44.083 108.086 44.083 108.086H43.9386C43.8001 108.13 43.6921 108.177 43.5944 108.218L43.594 108.218C43.3898 108.305 43.2328 108.371 42.9428 108.371C42.5144 108.371 42.2307 108.232 41.947 108.086H41.8023L41.6578 107.94H41.513L19.1557 92.1515C18.5884 91.7204 18.1599 91.0027 18.1599 90.2853V18.0894C18.1599 17.798 18.1599 17.5121 18.3047 17.2262V17.0802C18.3783 17.0089 18.4507 16.8998 18.5227 16.7906C18.5925 16.6852 18.6619 16.5797 18.7332 16.5084C18.7332 16.3625 18.8776 16.3625 18.8776 16.3625C18.9467 16.3625 18.9812 16.3268 19.0165 16.2908C19.0521 16.2541 19.0885 16.2169 19.1613 16.2169L41.5186 0.428862C42.2307 -0.142954 43.3713 -0.142954 44.0834 0.428862L64.7272 15.2077L86.0892 0.569588C86.8009 -0.00222867 87.9415 -0.00222867 88.6536 0.569588L109.763 15.4765L109.761 15.2077L131.123 0.569588C131.835 -0.00222867 132.975 -0.00222867 133.688 0.569588L156.045 16.3577L156.334 16.6491C156.387 16.7022 156.44 16.7353 156.486 16.7635C156.562 16.8103 156.618 16.8444 156.618 16.935L156.757 17.0806C156.757 17.0806 156.901 17.2209 156.901 17.3665L156.913 91.9948L156.768 92.1407L134.411 107.928H134.267C134.267 108.074 134.122 108.074 134.122 108.074H133.977C133.855 108.114 133.744 108.155 133.641 108.192C133.386 108.286 133.184 108.36 132.982 108.36C132.553 108.36 132.27 108.22 131.986 108.074H131.841L131.696 107.928H131.557L110.495 93.0159ZM130.27 101.762L112.469 89.2769V54.1068L130.27 66.7384V101.762ZM85.2363 101.762L67.435 89.2769V54.1068L85.2363 66.7384V101.762ZM22.7204 89.1313L40.5221 101.617V66.5932L33.9686 62.0012L22.7204 54.1075V89.1313ZM111.868 19.1135L111.872 48.0786L132.413 62.7241L133.409 62.0064L150.781 49.6608L131.127 35.74H131.126C130.553 35.3082 130.125 34.5904 130.125 33.8731C130.125 33.1553 130.553 32.4376 131.12 32.0057L150.775 18.085L132.407 5.16751L111.868 19.1135ZM105.747 49.6608L86.0932 35.74H86.0921C85.5193 35.3082 85.0908 34.5904 85.0908 33.8731C85.0908 33.1553 85.5192 32.4376 86.0866 32.0057L105.741 18.085L87.3727 5.16751L66.0108 19.8056C65.299 20.3778 64.1584 20.3778 63.4463 19.8056L42.7965 5.16194L24.4282 18.079L44.0826 32.0002C44.65 32.432 45.0784 33.1494 45.0784 33.8671C45.0784 34.5849 44.65 35.3026 44.0826 35.7341L24.4282 49.6552L41.8011 62.0008L42.7969 62.7182L63.5863 47.7945H63.7307C63.7307 47.6486 63.8755 47.6486 63.8755 47.6486H64.0036C64.0036 47.5027 64.1481 47.5027 64.1481 47.5027H65.8615C65.8615 47.6486 66.0059 47.6486 66.0059 47.6486H66.1507C66.1507 47.7945 66.2955 47.7945 66.2955 47.7945H66.44L87.379 62.7241L88.3748 62.0064L105.747 49.6608ZM111.868 19.1135L109.81 20.5108C109.812 20.5089 110.019 43.1435 110.054 46.9595L110.816 47.5027H110.895C110.895 47.5291 110.9 47.551 110.908 47.5684L111.017 47.6464C111.031 47.6486 111.04 47.6486 111.04 47.6486H111.185C111.185 47.7945 111.329 47.7945 111.329 47.7945H111.474L111.872 48.0786L111.868 19.1135ZM109.81 20.4933L92.0619 32.8932C91.8611 33.0332 91.7411 33.2623 91.74 33.5073C91.7386 33.7524 91.8566 33.9826 92.056 34.1248L110.054 46.9595L109.81 20.4933ZM22.7204 22.5303L38.8146 33.8667L22.7204 45.2028V22.5303Z" fill="url(#paint0_linear)"></path><defs><linearGradient id="paint0_linear" x1="152.693" y1="90.0451" x2="51.2814" y2="-0.013651" gradientUnits="userSpaceOnUse"><stop stop-color="#C402E9"></stop><stop offset="1" stop-color="#5C00F9"></stop></linearGradient><clipPath id="clip0"><rect width="175" height="14.6919" fill="white" transform="translate(0 127.308)"></rect></clipPath></defs></svg>
